<svg xmlns="http://www.w3.org/2000/svg" width="256" height="256"><path fill="#1976D2" fill-opacity=".016" fill-rule="evenodd" d="M0 128.004v128.004l128.25-.254 128.25-.254.254-127.75L257.008 0H0zm.485.496c0 70.4.119 99.053.265 63.672s.146-92.98 0-128S.485 58.1.485 128.5"/><path fill="#1976D2" fill-opacity=".235" fill-rule="evenodd" d="M68.5 65.945c-1.1.451-2.9 1.819-4 3.041-1.928 2.143-2 3.63-2 41.368V149.5h16.987l-.236-20.296-.237-20.295 6.661.295 6.662.296 2.143 6.43c2.376 7.127 4.636 9.455 6.848 7.053.751-.816 2.394-6.208 3.651-11.983s2.605-11.105 2.996-11.845c.421-.797 1.239 1.142 2.005 4.75l1.293 6.095h17.617l.305 4.75.305 4.75 4.25.307 4.25.308V110.11l4.75-.305c4.704-.302 4.753-.341 5.06-4.055l.311-3.75H138V92h-9v10.091l-6.741-.295-6.741-.296-2.509-9.995c-1.758-7.003-2.986-10.085-4.101-10.293-2.579-.482-3.527 1.631-6.412 14.288-1.504 6.6-3.085 12.382-3.514 12.849s-1.086-.546-1.46-2.25L96.841 103H71V88.417c0-11.213.289-14.492 1.25-14.186.688.219 4.85 6.093 9.25 13.054l8 12.656 4.75.029c2.612.017 4.75-.218 4.75-.52s-3.882-6.715-8.626-14.25C78.513 66.363 75.011 63.28 68.5 65.945m68-.038c-1.1.481-3.125 2.084-4.5 3.562-2.243 2.412-2.5 3.526-2.5 10.859V88.5h8l.295-7.314c.278-6.895.421-7.295 2.5-7 2.101.299 2.229.882 2.705 12.314l.5 12 3.5-.073 3.5-.073.279-13.129c.278-13.12.276-13.131-2.5-16.212-2.97-3.295-8.194-4.672-11.779-3.106M177 84v18h-26v8h26v40h17V66h-17zm-70.676 35.228-1.071 5.227 7.498 11.811c8.143 12.828 11.1 15.36 16.711 14.307 1.77-.332 4.303-1.757 5.628-3.166 2.189-2.327 2.441-3.566 2.748-13.485l.339-10.922H129v9.5c0 7.323-.31 9.5-1.354 9.5-.745 0-5.343-6.3-10.217-14s-9.126-14-9.448-14-1.068 2.352-1.657 5.228M199 176c0 13.942.01 14 2.3 14 1.265 0 2.789-.489 3.387-1.087.783-.783 1.275-.783 1.759 0 1.046 1.692 7.815 1.236 10.187-.685 8.22-6.659 4.048-19.228-6.383-19.228-1.568 0-3.39.54-4.05 1.2-.933.933-1.2.156-1.2-3.5 0-4.556-.092-4.7-3-4.7h-3zM35.727 163.75c-.216.412-.355 6.375-.309 13.25l.082 12.5h6l.5-7.4.5-7.4 6.319 7.65c4.71 5.702 6.938 7.65 8.75 7.65H60v-27h-5.919l-.291 7.973-.29 7.974-6.402-7.974c-4.639-5.777-7.033-7.973-8.691-7.973-1.259 0-2.465.338-2.68.75M147 176.5v13.633l2.75-.317c2.565-.295 2.77-.669 3.052-5.566l.303-5.25h5.947c3.272 0 5.895.338 5.83.75-.066.412-.066 2.917 0 5.566.114 4.641.218 4.805 2.868 4.5l2.75-.316v-26l-2.696-.311c-2.592-.299-2.707-.11-3 4.93l-.304 5.241-5.5.07-5.5.07-.5-5c-.457-4.566-.739-5.027-3.25-5.316l-2.75-.317zm-83-.45c0 7.369 1.654 12.219 4.545 13.329 2.685 1.03 7.977.699 9.255-.579.933-.933 1.2-.919 1.2.066 0 .792 1.031 1.148 2.75.95l2.75-.316v-20l-2.75-.316-2.75-.317v6.495c0 6.816-1.426 9.638-4.871 9.638-3.135 0-4.129-2.215-4.129-9.2V169h-6zm25 3.516v10.567l2.75-.317c2.619-.301 2.774-.621 3.25-6.714.498-6.377.997-7.184 5.25-8.498 2.098-.649 2.337-4.442.328-5.212-.782-.3-2.448.003-3.702.674-1.686.902-2.38.923-2.662.077-.209-.628-1.468-1.143-2.797-1.143-2.403 0-2.417.059-2.417 10.566m16.635-8.493c-2.978 2.342-3.442 5.978-1.065 8.354 1.454 1.454 3.075 2.038 7.733 2.784.991.159 1.891.739 2 1.289.274 1.391-5.799 1.84-8.115.601-1.555-.833-2.099-.592-2.968 1.315-.922 2.025-.736 2.484 1.405 3.459 4.495 2.048 11.182 1.409 13.92-1.33 1.35-1.35 2.455-3.064 2.455-3.808 0-2.677-2.904-5.24-7.09-6.259-2.345-.571-4.47-1.657-4.722-2.413-.365-1.096.568-1.254 4.592-.777 4.147.491 5.164.3 5.689-1.069 1.626-4.236-9.069-5.895-13.834-2.146M125.4 172.4c-4.73 4.73-4.73 9.47 0 14.2 2.857 2.857 4.117 3.4 7.889 3.4 2.96 0 5.294-.66 6.85-1.935 2.247-1.843 2.277-2.022.618-3.708-1.361-1.383-2.007-1.507-2.95-.564-1.3 1.3-4.672 1.58-7.225.6-3.524-1.352-1.193-2.393 5.359-2.393 3.818 0 7.225-.459 7.571-1.02 1.069-1.729-1.519-7.84-4.219-9.964-4.17-3.28-9.789-2.72-13.893 1.384m49.6 4.579c0 7.279.252 8.364 2.455 10.566 2.627 2.628 7.209 3.241 10.611 1.42 1.333-.714 1.934-.714 1.934 0 0 .569 1.125 1.035 2.5 1.035h2.5v-21h-6v6.965c0 5.984-.287 7.118-2.038 8.055-1.121.6-2.901.817-3.957.482-1.619-.514-1.965-1.736-2.212-7.806-.286-7.024-.359-7.204-3.043-7.512l-2.75-.317zm-45.755-1.824c-2.025 2.025-1.491 2.459 3.338 2.709 3.94.203 4.535-.016 4.242-1.564-.414-2.182-5.738-2.987-7.58-1.145m77.326.416C203.373 178.77 205.638 185 210 185c4.507 0 6.619-6.224 3.171-9.345-2.296-2.078-4.576-2.107-6.6-.084"/><path fill="#1976D2" fill-opacity=".401" fill-rule="evenodd" d="M65.452 68.646 63 71.292V149h16v-40h13.529l2.486 7.25c1.972 5.755 2.897 7.25 4.485 7.25 1.71 0 2.339-1.448 4.344-10 1.289-5.5 2.827-11.8 3.418-14l1.074-4 1.601 7 1.601 7 9.231.288 9.231.287v4.463c0 4.419.033 4.462 3.445 4.462 3.401 0 3.449-.061 3.75-4.75.228-3.55.675-4.669 1.769-4.429.805.177 2.942.044 4.75-.295 2.962-.556 3.286-.958 3.286-4.071V102h-10V92h-7v10h-14.776l-2.238-9.25c-2.477-10.24-4.305-13.331-6.297-10.65-.654.88-2.533 7.743-4.176 15.25-1.643 7.508-3.286 13.65-3.651 13.65s-1.062-1.687-1.549-3.75l-.885-3.75-13.214-.279L70 102.942l.015-13.721c.015-13.395.681-17.145 2.811-15.829.577.357 4.565 6.264 8.862 13.127L89.5 98.997l4.25.002c2.338 0 4.25-.216 4.25-.482 0-1.48-19.498-30.713-21.033-31.535-3.596-1.924-8.9-1.158-11.515 1.664m67.471.277c-2.748 2.748-2.923 3.406-2.923 11V88h6.909l.295-6.646c.228-5.127.709-6.898 2.105-7.75 3.423-2.09 4.691 1.581 4.691 13.587V98h7V86.401C151 70.12 148.653 66 139.376 66c-2.568 0-4.326.796-6.453 2.923M177 84.5V102h-26.121l.311 3.75.31 3.75h25.503l-.002 19.75L177 149h17V67h-17zm-69.404 31.345c-.288.465-.81 2.641-1.161 4.835-.584 3.656-.118 4.816 5.598 13.904 8.051 12.802 10.77 15.416 16.031 15.416 3.075 0 4.613-.628 6.484-2.646 2.29-2.471 2.452-3.365 2.452-13.5V123h-7v8.878c0 6.424-.39 9.201-1.412 10.049-1.71 1.419-3.31-.565-13.046-16.177-3.687-5.912-6.865-10.75-7.064-10.75s-.595.38-.882.845M200 175.447v13.447l4.25.097c2.338.053 5.783.153 7.657.221 4.657.171 8.093-3.792 8.093-9.334 0-5.266-1.436-7.745-5.462-9.427-2.41-1.007-4.21-1.119-6.663-.415-1.849.53-3.477.964-3.618.964s-.257-2.025-.257-4.5c0-3.833-.296-4.5-2-4.5-1.901 0-2 .667-2 13.447M36 176.5V189h2.46c2.385 0 2.468-.243 2.75-8.069l.29-8.07 6.5 8.022c5.216 6.437 7.043 8.031 9.25 8.069L60 189v-25h-5.916l-.292 7.646-.292 7.647-6.319-7.647c-4.71-5.698-6.939-7.646-8.75-7.646H36zm111 0V189h2.448c2.248 0 2.472-.429 2.75-5.25l.302-5.25 6.25-.298 6.25-.297v5.547c0 5.251.134 5.548 2.5 5.548h2.5v-25h-2.5c-2.333 0-2.5.333-2.5 5v5h-13v-5c0-4.667-.167-5-2.5-5H147zm-50.25-6.053c-1.513.789-2.75 1.011-2.75.494 0-.518-1.125-.941-2.5-.941-2.491 0-2.5.033-2.5 9.5s.009 9.5 2.5 9.5c2.364 0 2.5-.3 2.5-5.5 0-5.719 2.189-9.5 5.5-9.5.933 0 1.5-.944 1.5-2.5 0-2.889-.496-3.012-4.25-1.053m10.535.029c-4.287 1.864-5.492 6.128-2.433 8.605 1.185.959 3.952 2.048 6.151 2.419 2.427.41 3.997 1.223 3.997 2.069 0 1.961-4.042 2.746-7.456 1.448-2.752-1.047-4.474-.227-4.529 2.155-.031 1.361 7.219 3.007 10.518 2.388 4.368-.82 6.467-2.961 6.467-6.596 0-3.218-1.51-4.342-7.215-5.371-4.542-.82-5.531-2.123-2.742-3.616 1.475-.79 2.967-.821 5.022-.104 2.47.861 3.08.725 3.938-.878.883-1.651.528-2.031-2.744-2.94-4.696-1.304-5.044-1.288-8.974.421m20.928.031c-4.464 1.939-6.764 7.295-5.186 12.076 2.039 6.176 8.786 8.775 15.498 5.971 3.437-1.436 3.687-1.77 2.335-3.122-1.19-1.191-2.105-1.289-4.279-.463-3.002 1.142-7.568-.347-8.34-2.719-.302-.926 1.559-1.25 7.176-1.25 6.978 0 7.583-.164 7.583-2.05 0-3.607-2.829-7.695-6.119-8.842-3.982-1.388-4.625-1.358-8.668.399M65 177.927c0 7.447.166 8.058 2.735 10.079 2.038 1.604 3.504 1.989 5.75 1.514 1.658-.351 4.703-.601 6.765-.555l3.75.083v-9.524c0-9.492-.008-9.524-2.5-9.524-2.405 0-2.5.241-2.5 6.378 0 7.171-1.205 8.959-5.69 8.444-2.76-.316-2.815-.45-3.104-7.572-.282-6.952-.394-7.25-2.75-7.25-2.402 0-2.456.176-2.456 7.927m110-1.474c0 7.515 1.264 10.891 4.657 12.437 3.169 1.443 4.274 1.394 7.593-.337 1.512-.789 2.75-1.011 2.75-.494 0 .518 1.125.941 2.5.941 2.491 0 2.5-.033 2.5-9.5s-.009-9.5-2.5-9.5c-2.382 0-2.5.277-2.5 5.845 0 6.283-1.766 9.155-5.629 9.155-3.323 0-4.371-2.086-4.371-8.7 0-6.053-.098-6.3-2.5-6.3-2.408 0-2.5.236-2.5 6.453m-44.777-1.896C126.754 176.986 127.571 178 133 178c2.75 0 5-.424 5-.943 0-.913-3.875-4.057-5-4.057-.305 0-1.555.701-2.777 1.557m75.11 2.058c-1.535 2.343-1.56 2.89-.242 5.25 1.641 2.937 6.116 4.038 8.469 2.085 1.746-1.449 1.901-7.089.24-8.75-2.163-2.163-6.609-1.42-8.467 1.415"/><path fill="#1976D2" fill-opacity=".287" fill-rule="evenodd" d="M66.306 68.413 63.5 70.825l-.284 39.088L62.933 149H79v-41h13.685l2.431 7.25c1.915 5.707 2.849 7.25 4.392 7.25 1.694 0 2.371-1.787 4.991-13.182 1.667-7.25 3.303-13.453 3.634-13.784.332-.332.894.85 1.249 2.627s1.107 4.942 1.671 7.035l1.024 3.804H130v5c0 4.095.317 5 1.75 5 1.566 0 1.773-1.368 1.966-13 .205-12.332.115-13-1.75-13-1.666 0-1.966.693-1.966 4.542v4.542l-7.73-.292-7.73-.292-1.313-6c-2.444-11.158-3.274-13.5-4.79-13.5-1.927 0-2.597 1.928-5.994 17.25-1.554 7.013-3.119 12.75-3.476 12.75-.358 0-1.19-1.8-1.849-4l-1.198-4H69.948l.276-15.237c.228-12.605.535-15.286 1.776-15.517.97-.181 4.301 4.176 9.432 12.338 4.362 6.94 8.482 12.829 9.155 13.088.672.258 2.583.325 4.246.148l3.023-.32-8.877-14c-4.882-7.7-10.049-15.013-11.483-16.25-3.391-2.926-7.671-2.864-11.19.163m40.788 51.128-1.163 4.618 7.264 11.514c7.321 11.605 10.21 14.327 15.2 14.327 1.371 0 3.756-1.085 5.299-2.412 2.696-2.316 2.819-2.828 3.147-13l.341-10.588h-7.107l-.287 9.239c-.417 13.394-1.534 13.037-12.316-3.939-4.821-7.59-8.867-13.93-8.991-14.088-.123-.159-.748 1.79-1.387 4.329M36 176.5V189h2.5c2.458 0 2.5-.133 2.5-8 0-4.4.337-7.965.75-7.921s3.485 3.53 6.829 7.75c3.632 4.584 6.952 7.8 8.25 7.991 2.13.313 2.171.081 2.171-12.25 0-11.903-.106-12.57-2-12.57-1.833 0-2 .667-2 8 0 4.4-.342 8-.761 8-.418 0-3.648-3.6-7.177-8-4.702-5.863-7.037-8-8.739-8-2.307 0-2.323.087-2.323 12.5m29 1c0 6.167.356 7.856 2 9.5 2.292 2.292 8.816 2.74 10.925.75 1.06-1 1.417-1 1.783 0 .252.688 1.321 1.25 2.375 1.25 1.755 0 1.917-.804 1.917-9.5 0-9.186-.074-9.5-2.25-9.497-2.087.002-2.25.445-2.25 6.089 0 5.19-.348 6.368-2.361 7.997-2.963 2.398-3.662 2.388-6.139-.089-1.556-1.556-2-3.333-2-8 0-5.333-.222-6-2-6-1.822 0-2 .667-2 7.5m24.118 2c.245 9.19.329 9.5 2.568 9.5 2.155 0 2.314-.402 2.314-5.845 0-6.128 1.762-9.155 5.329-9.155 1.004 0 1.671-.798 1.671-2 0-2.285-2.84-2.717-4.925-.75-1.06 1-1.417 1-1.783 0-.252-.687-1.577-1.25-2.943-1.25h-2.484zm16.462-7.588c-1.023 1.13-1.597 3.071-1.405 4.75.283 2.467.939 2.99 5.025 3.998 6.3 1.555 7.19 2.166 5.726 3.929-1.353 1.631-4.717 1.821-8.276.468-1.938-.737-2.613-.596-3.088.643-.865 2.253-.239 2.579 5.927 3.091 6.488.538 10.511-1.449 10.511-5.192 0-3.395-1.333-4.263-9.25-6.025-1.513-.337-2.75-1.27-2.75-2.074 0-1.779 4.107-2.941 7.439-2.105 1.372.345 2.74.125 3.128-.503 1.994-3.227-10.126-4.142-12.987-.98m20.343 1.011c-2.164 2.164-2.923 3.872-2.923 6.577 0 5.667 4.358 9.5 10.801 9.5 3.244 0 5.396-.532 6.234-1.542 1.953-2.353-.111-3.836-3.309-2.379-3.25 1.481-7.346.5-8.732-2.091-1.022-1.909-.738-1.988 7.096-1.988h8.16l-.624-3.25c-1.478-7.701-11.06-10.47-16.703-4.827m4.316.743c-.694.28-1.723 1.369-2.286 2.421-.951 1.777-.629 1.913 4.512 1.913 4.194 0 5.535-.355 5.535-1.465 0-2.523-4.496-4.185-7.761-2.869"/></svg>