<svg xmlns="http://www.w3.org/2000/svg" width="256" height="256"><path fill="#1976D2" fill-opacity=".016" fill-rule="evenodd" d="M0 128.004v128.004l128.25-.254 128.25-.254.254-127.75L257.008 0H0zm.485.496c0 70.4.119 99.053.265 63.672s.146-92.98 0-128S.485 58.1.485 128.5"/><path fill="#1976D2" fill-opacity=".143" fill-rule="evenodd" d="M55.27 53.444c-1.777.793-4.138 2.931-5.247 4.749-1.945 3.191-2.016 4.947-2.019 50.057L48 155h21v-50.084l7.67.292 7.669.292 2.899 8.704c2.946 8.849 5.208 11.331 8.122 8.912.695-.576 2.802-8.01 4.683-16.518s3.57-15.319 3.754-15.135 1.103 3.643 2.041 7.686l1.707 7.351 10.678.283 10.679.284.299 5.716.299 5.717h10l.3-5.75.3-5.75H151V96h-11V85h-11v11h-16.684l-2.274-10.25C107.827 75.767 105.89 71 104.048 71c-2.384 0-3.947 4.023-7.545 19.424l-3.898 16.682-1.681-4.303-1.681-4.303-15.622-.275L58 97.949V80.534c0-10.214.403-17.665.973-18.018 1.376-.85 2.95 1.227 12.899 17.015L80.675 93.5l5.79.304c5.216.273 5.722.126 5.103-1.487-1.541-4.016-23.087-36.611-25.052-37.899-3.312-2.17-7.717-2.551-11.246-.974m83.016-.335c-1.767.511-4.392 2.474-5.832 4.362-2.376 3.115-2.634 4.339-2.786 13.231L129.5 80.5h10l.288-8.657c.226-6.808.627-8.788 1.876-9.268 3.549-1.361 4.273 1.144 4.559 15.775l.277 14.15 4.75.305 4.75.305V77.956c0-17.998-.966-21.128-7.424-24.061-4.518-2.052-5.618-2.136-10.29-.786m49.243.695c-.291.291-.529 10.017-.528 21.613l.001 21.083H155.5v10l15.732.275 15.732.276.268 23.724.268 23.725 10.259.285 10.259.285-.259-50.785L207.5 53.5l-9.721-.112c-5.347-.062-9.959.125-10.25.416m-85.893 63.594-1.639 6.524 8.484 13.348c10.855 17.079 12.066 18.23 19.182 18.23 4.922 0 5.801-.336 8.348-3.187 3.399-3.803 4.227-8.34 3.798-20.813l-.309-9h-10l-.282 11.817c-.245 10.228-.499 11.775-1.89 11.5-.883-.174-6.306-7.742-12.05-16.817-5.743-9.075-10.794-16.866-11.223-17.313s-1.518 2.123-2.419 5.711m112.59 69.352c.272 16.635.29 16.752 2.579 17.077 1.268.179 2.927-.189 3.686-.82.997-.827 1.937-.848 3.379-.076 5.566 2.978 13.734-.787 15.89-7.325 3.436-10.425-6.597-20.827-15.705-16.284L221 180.847V170h-7.048zM15.441 172.294c-.273.712-.372 8.024-.219 16.25L15.5 203.5h7l.5-9.447.5-9.447 7.873 9.697c6.65 8.192 8.319 9.697 10.75 9.697H45v-33h-7v20.157l-8.25-10.068c-6.841-8.348-8.725-10.07-11.031-10.078-1.53-.006-3.005.571-3.278 1.283M151 187.5v16.627l3.25-.314 3.25-.313.296-6.75.295-6.75h13.818l.295 6.75.296 6.75h7v-32h-7l-.298 6.25-.297 6.25h-13.81l-.297-6.25c-.298-6.25-.298-6.25-3.548-6.563l-3.25-.314zm-60.75-8.007c-1.787.776-3.25.982-3.25.459 0-.524-1.589-.952-3.531-.952h-3.531l.281 12.25.281 12.25 3.25.313 3.25.314v-7.564C87 188.106 88.763 185 93.563 185c2.279 0 2.529-.353 2.25-3.173-.375-3.805-1.289-4.188-5.563-2.334m12.079-.035c-8.685 3.778-6.25 12.496 4.026 14.416 5.276.986 6.149 1.501 5.186 3.059-.868 1.406-7.111 1.368-9.778-.06-1.719-.92-2.348-.793-3.434.692-2.197 3.005-1.55 4.113 3.175 5.436 6.356 1.78 12.444.761 15.299-2.559 4.505-5.237 1.037-10.72-7.726-12.216-5.065-.865-6.438-2.846-2.632-3.802 2.491-.625 4.27-.391 7.627 1.001 1.08.448 1.94-.156 2.75-1.933 1.572-3.452 1.685-3.257-2.572-4.439-4.951-1.375-8.073-1.269-11.921.405m26.086-.037c-9.902 4.312-10.126 18.057-.376 23.099 3.985 2.061 9.859 1.84 13.724-.517 2.922-1.782 3.131-2.203 2-4.039-.881-1.43-1.868-1.857-3.263-1.413-4.987 1.587-7.625 1.597-10.002.04-1.374-.901-2.498-1.967-2.498-2.371s4.162-.731 9.25-.727l9.25.007-.219-3.737q-.42-7.178-6.741-10.177c-4.027-1.911-7.013-1.955-11.125-.165m-78.262 9.162c.34 9.379.417 9.646 3.613 12.5 3.472 3.101 7.745 3.784 11.407 1.824 1.477-.79 2.344-.79 3.134 0 .601.601 2.353 1.093 3.893 1.093H75v-25h-7v7.309c0 7.731-.972 10.036-4.699 11.141-1.516.45-2.836.015-4.25-1.399C57.348 194.348 57 192.729 57 186.5V179h-7.193zM185 188.444c0 8.36.258 9.742 2.25 12.034 2.887 3.323 8.481 4.301 12.663 2.215 2.615-1.304 3.087-1.322 3.087-.116 0 .914 1.072 1.423 3 1.423h3v-25h-7v7.977c0 7.284-.205 8.112-2.365 9.527-1.798 1.177-2.997 1.309-5 .547-2.562-.974-2.635-1.237-2.635-9.526V179h-7zm-55.506-2.438c-.998 1.104-1.569 2.252-1.268 2.553s3.186.411 6.411.244l5.863-.303-2.25-2.25c-2.788-2.788-6.363-2.887-8.756-.244m94.023.386c-5.788 5.788.259 14.606 6.99 10.195 1.944-1.273 2.493-2.483 2.493-5.488 0-4.022-.992-5.392-4.733-6.539-1.644-.503-2.899-.019-4.75 1.832"/><path fill="#1976D2" fill-opacity=".465" fill-rule="evenodd" d="M54.241 54.325c-5.856 3.253-5.715 2.012-6.037 52.925L47.908 154H68v-49l8.25.004 8.25.003 3.034 8.747c2.432 7.009 3.461 8.808 5.183 9.057 2.928.423 3.489-.96 7.313-18.019 1.814-8.089 3.615-14.512 4.002-14.272.388.24.985 2.133 1.328 4.208.342 2.075 1.098 5.46 1.678 7.522l1.056 3.75H130v12h9v-12h12v-9h-12V85h-9v12h-17.838L109.3 84.75c-2.707-11.586-2.996-12.25-5.331-12.25-2.895 0-3.182.786-8.05 22-3.298 14.372-3.307 14.384-5.878 7.25L89.05 99H57.955l.272-18.25c.227-15.194.517-18.25 1.731-18.25.801 0 5.976 7.085 11.5 15.745L81.5 93.991l5.333.004c2.934.003 5.184-.353 5-.792-1.68-4.015-22.841-35.873-25.078-37.755-3.245-2.731-8.732-3.223-12.514-1.123m83.259-.371c-1.1.455-3.125 2.037-4.5 3.515-2.255 2.424-2.534 3.661-2.844 12.609L129.813 80H139v-7.8c0-8.029.886-10.2 4.165-10.2 3.048 0 3.835 3.473 3.835 16.934V92h9.218l-.401-14.75c-.446-16.379-1.532-20.017-6.784-22.733-3.168-1.638-8.325-1.89-11.533-.563M188 75.5V97h-32v9h32v48h19.5l-.268-50-.268-50H188zm-85.838 41.618c-.639 2.769-1.162 5.631-1.162 6.359 0 1.802 14.306 24.24 17.994 28.224 3.726 4.024 8.563 5.078 13.203 2.876 5.752-2.73 6.803-5.739 6.803-19.481V123h-9v11.031c0 8.925-.289 11.143-1.513 11.612-2.352.903-3.626-.662-14.005-17.198-5.34-8.507-10.035-15.669-10.433-15.915-.399-.246-1.248 1.818-1.887 4.588M215 186.5V203h2.417c1.329 0 2.588-.515 2.797-1.143.286-.858.915-.858 2.518 0 1.175.628 3.959 1.143 6.186 1.143 10.792 0 15.119-15.106 6.312-22.034-2.742-2.157-9.105-2.639-12.296-.931-1.804.966-1.934.663-1.934-4.5 0-5.483-.028-5.535-3-5.535h-3zm-199 1V203h5.93l.285-10.058.285-10.058 8.259 10.058C37.871 201.603 39.434 203 42.009 203H45v-31h-6.928l-.286 9.569-.286 9.569-7.869-9.569c-6.626-8.057-8.325-9.569-10.75-9.569H16zm135 0V203h6v-13h16v13h6v-31h-6v12h-16v-12h-6zm-100 .777c0 10.635 1.101 13.105 6.505 14.597 3.659 1.01 7.087.548 9.408-1.268 1.048-.821 1.521-.784 1.833.144.231.688 1.733 1.25 3.337 1.25H75v-24h-7v7.845C68 195.304 66.609 198 62.243 198 58.205 198 57 195.454 57 186.929V179h-6zm29.472-8.231c-.356.575-.495 5.974-.309 11.999l.337 10.954h3.25L87 203v-7.345C87 187.691 88.472 185 92.829 185c1.746 0 2.171-.588 2.171-3 0-3.408-2.257-4.029-5.559-1.532-2.498 1.89-3.441 1.898-3.441.032 0-1.726-4.513-2.097-5.528-.454m20.163 1.027C98.738 182.565 98 184.071 98 186.45c0 4.128 1.564 5.446 8.216 6.923 3.402.756 5.374 1.738 5.574 2.777.452 2.347-3.981 3.119-8.657 1.508-3.798-1.309-3.989-1.27-5.032 1.019-.964 2.117-.782 2.498 1.658 3.46 4.244 1.674 12.784 1.392 15.698-.517 1.996-1.308 2.543-2.495 2.543-5.521 0-4.682-.945-5.539-8-7.259-3.626-.883-5.5-1.851-5.5-2.84 0-1.167 1.242-1.476 5.599-1.394 4.464.085 5.837-.274 6.77-1.767 1.004-1.608.803-2.013-1.415-2.856-4.559-1.734-11.918-1.193-14.819 1.09m25.697-.01c-5.029 3.222-6.728 10.336-3.815 15.97 3.036 5.871 12.513 8.091 19.363 4.536l3.379-1.754-2.118-2.119c-1.659-1.658-2.382-1.855-3.33-.907-2.773 2.773-11.811.584-11.811-2.86 0-.511 4.05-.929 9-.929h9v-3.6c0-2.761-.793-4.393-3.4-7-2.94-2.94-4.056-3.398-8.25-3.383-3.143.011-5.965.731-8.018 2.046m58.821 7.358c.307 8.335.627 9.719 2.771 12 1.909 2.03 3.382 2.579 6.922 2.579 2.781 0 5.194-.631 6.325-1.655 1.702-1.54 1.829-1.54 1.829 0 0 1.172.875 1.655 3 1.655h3v-24h-5.788l-.368 8.089c-.394 8.694-1.708 10.911-6.464 10.911-4.179 0-5.38-2.471-5.38-11.071V179h-6.193zm-56.621-2.171-1.581 2.25 6.14.301c3.378.165 6.386.055 6.685-.244.3-.3-.272-1.447-1.27-2.551-2.547-2.814-7.917-2.683-9.974.244m94.123-.421c-2.237 2.471-2.138 8.424.174 10.516 4.486 4.06 11.171.729 11.171-5.568 0-5.722-7.632-9.051-11.345-4.948"/><path fill="#1976D2" fill-opacity=".287" fill-rule="evenodd" d="M55.5 53.945c-1.1.451-2.9 1.819-4 3.041-1.932 2.147-2.009 3.836-2.278 49.618L48.943 154h19.022l.268-24.75.267-24.75h7.893c8.987 0 8.176-.719 12.192 10.8 2.297 6.588 3.036 7.753 4.759 7.5 2.154-.317 2.324-.848 7.704-24.05 1.244-5.362 2.641-9.75 3.106-9.75.466 0 .846.699.846 1.553s.711 4.679 1.58 8.5l1.58 6.947H130v6c0 5.333.222 6 2 6 1.1 0 2.053-.112 2.117-.25.643-1.371.559-31.75-.088-31.75-.476 0-1.577-.273-2.447-.607-1.337-.513-1.582.345-1.582 5.538v6.144l-9.127-.287-9.127-.288-2.749-11.326c-4.581-18.876-6.296-18.206-11.447 4.472-2.105 9.27-4.157 17.482-4.56 18.25-.485.925-1.309-.34-2.442-3.75L88.839 99H57V82.082c0-9.305.273-17.63.607-18.5 1.5-3.908 4.205-1.175 13.781 13.918L81.221 93h4.949c3.669 0 4.765-.323 4.241-1.25-7.319-12.949-22.489-35.436-24.895-36.903-3.185-1.942-6.7-2.259-10.016-.902m46.666 64.03-1.234 5.974 7.668 12.276C118.353 151.84 121.495 155 127.263 155c9.023 0 11.737-4.849 11.737-20.968V123h-9v10.878c0 8.303-.345 11.163-1.456 12.086-.801.664-1.895.937-2.432.605-.536-.331-5.578-7.907-11.204-16.836s-10.517-16.57-10.868-16.983c-.352-.412-1.195 1.939-1.874 5.225M16 187.5V203h6v-10c0-5.5.413-10 .917-10s1.066.422 1.25.939 3.68 5.016 7.77 10c5.466 6.659 8.05 9.061 9.75 9.061H44v-31h-5v10c0 5.5-.337 9.981-.75 9.958s-4.35-4.512-8.75-9.976c-6.596-8.19-8.483-9.938-10.75-9.958L16 172zm35 .511c0 8.772.119 9.261 2.923 12.066 3.371 3.371 9.12 3.982 12.854 1.366 2.012-1.409 2.223-1.409 2.223 0 0 .994.904 1.557 2.5 1.557H74v-23.6h-2.5c-2.431 0-2.5.195-2.5 7.077C69 195.158 67.413 198 62.566 198c-1.827 0-3.787-.562-4.357-1.25s-1.188-4.85-1.373-9.25c-.331-7.889-.374-8.004-3.086-8.316l-2.75-.317zm30 3.239V203h2.5c2.387 0 2.5-.27 2.5-5.953 0-7.578 1.452-10.719 5.657-12.24 2.53-.915 3.343-1.794 3.343-3.616 0-2.126-.321-2.328-2.75-1.721-1.513.377-3.537 1.396-4.5 2.263-1.606 1.447-1.75 1.42-1.75-.328 0-1.365-.708-1.905-2.5-1.905H81zm21.4-10.881c-1.706.775-3.393 2.17-3.75 3.102-1.938 5.049.498 7.939 8.059 9.56 2.82.605 5.362 1.712 5.65 2.461.881 2.297-2.06 3.82-6.119 3.168-2.057-.33-4.623-.726-5.702-.88-3.141-.448-3.179 3.026-.046 4.217 7.966 3.029 17.508-.195 17.508-5.915 0-3.627-2.564-5.829-7.755-6.659-2.312-.369-4.937-1.209-5.835-1.865-1.5-1.097-1.488-1.337.153-2.978 1.741-1.742 5.334-1.782 9.558-.108 1.821.722 3.508-2.243 2.085-3.666-1.619-1.619-10.58-1.902-13.806-.437m24.79.657c-4.522 2.756-6.741 8.19-5.305 12.986.595 1.984 2.25 4.706 3.679 6.048 2.183 2.051 3.597 2.44 8.863 2.44 7.271 0 10.171-1.57 8.334-4.511-1.057-1.693-1.382-1.719-4.063-.333-1.777.919-3.944 1.25-5.556.847-2.791-.696-6.142-3.237-6.142-4.658 0-.465 4.275-.845 9.5-.845 8.883 0 9.5-.132 9.5-2.032 0-9.437-10.52-14.997-18.81-9.942m2.116 4.389c-1.543 1.328-2.474 2.747-2.069 3.153s3.443.874 6.75 1.038c5.341.265 6.013.086 6.013-1.597 0-2.129-3.546-5.009-6.167-5.009-.947 0-2.984 1.087-4.527 2.415"/></svg>