<svg xmlns="http://www.w3.org/2000/svg" width="256" height="256"><path fill="#1976D2" fill-opacity=".016" fill-rule="evenodd" d="M0 128.004v128.004l128.25-.254 128.25-.254.254-127.75L257.008 0H0zm.485.496c0 70.4.119 99.053.265 63.672s.146-92.98 0-128S.485 58.1.485 128.5"/><path fill="#1976D2" fill-opacity=".163" fill-rule="evenodd" d="M47.542 42.699c-3.324.896-6.577 3.469-8.093 6.4C38.237 51.442 38 60.583 38 104.95V158h23v-56h17.781l3.359 9.665c1.848 5.316 4.147 10.151 5.11 10.745 3.743 2.31 5.037-.319 9.36-19.01 4.59-19.846 4.019-19.487 7.395-4.65l1.194 5.25H130v13h11v-12.909l6.75-.295 6.75-.296v-11l-6.75-.296-6.75-.295V79h-11v13l-9.75-.005-9.75-.004-2.925-12.746c-1.608-7.01-3.351-13.307-3.872-13.995-1.256-1.656-4.176-1.59-5.601.127-.628.757-3.022 9.532-5.32 19.5C90.485 94.845 88.343 103 88.022 103s-1.245-1.912-2.053-4.25L84.5 94.5l-17.771-.273-17.771-.273.271-19.714c.231-16.824.497-19.757 1.813-20.01 1.032-.198 4.505 4.37 10.5 13.811C76.472 91.553 75.025 90 82.006 90c3.297 0 5.994-.346 5.994-.768 0-1.736-26.985-42.864-29.151-44.43-2.588-1.871-8.256-2.925-11.307-2.103m93.4.218C132.305 45.643 130 50.076 130 63.96V74h11v-8.929c0-6.783.378-9.306 1.571-10.5.865-.864 1.958-1.571 2.429-1.571s1.564.707 2.429 1.571c1.297 1.297 1.571 4.353 1.571 17.5V88h11V71.316c0-14.912-.223-17.146-2.102-21.028-2.951-6.095-10.543-9.395-16.956-7.371m54.471 1c-.227.229-.413 11.131-.413 24.227v23.81l-17.75.273-17.75.273v11l17.75.273 17.75.273V158h24V44.121l-11.587-.31c-6.373-.171-11.773-.123-12 .106m-95.742 66.732c-.291 1.018-1.059 4.333-1.706 7.366l-1.178 5.516 9.196 14.484c10.691 16.84 13.087 19.626 18.193 21.156 3.075.921 4.537.821 8.041-.548 7.439-2.908 8.235-4.932 8.605-21.873l.322-14.75H130.06l-.28 12.75c-.397 18.077-1.031 17.854-15.926-5.6-13.181-20.754-13.443-21.096-14.183-18.501M226 194v19h3.417c1.879 0 3.575-.477 3.77-1.06.228-.684 1.41-.509 3.333.494 3.685 1.921 6.574 1.971 10.844.187 9.388-3.922 11.276-16.801 3.548-24.206-2.569-2.462-3.848-2.912-8.227-2.896-2.852.01-5.972.396-6.935.857-1.567.75-1.75.2-1.75-5.269V175h-8zM1 195v18h8v-22.129l9.036 11.064C26.38 212.153 27.337 213 30.536 213H34v-36h-8v22.136l-9.122-11.068C8.549 177.962 7.463 177 4.378 177H1zm153 0v18h8v-15h15.912l.294 7.25.294 7.25 4.273.309 4.274.308-.274-17.808-.273-17.809h-8l-.296 6.75-.295 6.75H162v-14h-8zm-113.333-9.333c-1.403 1.402-.692 18.479.91 21.855 2.704 5.696 10.048 7.965 15.903 4.912 1.923-1.003 3.105-1.178 3.333-.494.195.583 1.891 1.06 3.77 1.06H68v-28.121l-3.75.311-3.75.31-.266 9c-.229 7.721-.564 9.249-2.361 10.75-2.751 2.298-5.409 2.214-7.873-.25-1.704-1.704-2-3.333-2-11v-9h-3.333c-1.834 0-3.634.3-4 .667M74 199v14h8v-7.777c0-9.149 1.41-11.942 6.263-12.411 2.971-.286 3.237-.599 3.237-3.798 0-4.117-1.95-4.934-6.435-2.696-2.488 1.241-3.016 1.252-3.469.073-.316-.825-1.971-1.391-4.065-1.391H74zm24.225-11.996c-3.843 2.343-5.547 6.019-4.304 9.287 1.292 3.399 3.118 4.537 9.664 6.024 3.815.866 5.915 1.848 5.915 2.764 0 1.839-6.59 2.434-10.779.974-3.47-1.21-4.536-.595-4.942 2.852-.224 1.896.413 2.618 3.221 3.653 11.316 4.17 23.352-1.969 20.387-10.399-1.072-3.047-4.25-4.82-10.85-6.053-5.744-1.073-6.586-1.858-4.035-3.759 1.901-1.417 4.801-1.365 10.057.181 1.563.459 2.346-.025 3.25-2.008 1.553-3.408 1.663-3.16-1.958-4.422-4.984-1.738-11.953-1.333-15.626.906m29.016-.009c-10.047 6.125-9.465 20.277 1.03 25.041 5.287 2.401 10.223 2.472 14.669.212 4.063-2.064 4.575-3.161 2.683-5.749-1.215-1.662-1.761-1.757-4.061-.709-4.261 1.941-9.272 1.5-11.812-1.04l-2.25-2.25 10.75-.284 10.75-.284v-3.515c0-10.685-12.342-17.164-21.759-11.422m65.426-1.328c-.893.892-.743 11.648.246 17.664 1.414 8.598 8.941 12.884 16.236 9.244 2.078-1.036 3.454-1.267 3.671-.616.19.572 1.884 1.041 3.763 1.041H220v-28.121l-3.75.311-3.75.31-.266 9c-.229 7.721-.564 9.249-2.361 10.75-2.751 2.298-5.409 2.214-7.873-.25-1.704-1.704-2-3.333-2-11v-9h-3.333c-1.834 0-3.634.3-4 .667m-61.96 7.349c-1.489 1.171-2.707 2.546-2.707 3.057 0 .51 2.925.927 6.5.927 4.854 0 6.5-.349 6.5-1.378 0-1.783-1.868-3.3-5.049-4.098-1.784-.448-3.341-.005-5.244 1.492m104.948.813c-2.323 2.566-2.133 8.693.345 11.171 6.166 6.166 15.443-3.353 10.006-10.266-2.59-3.292-7.78-3.746-10.351-.905"/><path fill="#1976D2" fill-opacity=".457" fill-rule="evenodd" d="M43.514 45.168C38.001 49.504 38 49.512 38 106.001v52.065l11.25-.283 11.25-.283.266-27.787.266-27.788 9.152.288 9.152.287 3.112 9.337c3.432 10.299 5.74 12.887 8.474 9.503.868-1.073 3.332-9.675 5.475-19.114s4.206-16.971 4.585-16.737c.378.233 1.494 4.269 2.48 8.968l1.793 8.543h24.654l.295 6.75.296 6.75h10l.296-6.75.295-6.75H154V93h-12.909l-.295-6.75-.296-6.75h-10l-.297 6.786-.296 6.785-9.704-.285-9.703-.286-3.175-12.808C104.133 66.818 102.891 64 100.413 64c-2.135 0-2.936 2.378-7.498 22.25C90.548 96.563 88.29 105 87.898 105s-1.29-2.25-1.995-5l-1.281-5H49V74.559c0-14.466.34-20.651 1.164-21.16 1.683-1.041 4.371 2.469 15.335 20.022L75.229 89h5.885c3.237 0 5.886-.296 5.886-.658 0-1.762-25.577-40.65-28.172-42.833-3.968-3.339-11.296-3.502-15.314-.341m93.785-.208c-4.981 3.036-6.153 6.369-6.376 18.124l-.198 10.416 5.101.301 5.1.301.287-9.695c.235-7.945.603-9.893 2.037-10.796 1.274-.801 2.226-.801 3.5.002 1.529.963 1.785 3.142 2.025 17.245L149.05 87H159V69.95c0-18.995-.642-21.541-6.299-24.99-1.923-1.173-4.998-1.953-7.701-1.953s-5.778.78-7.701 1.953M196 68.5V93h-36v10h36l.001 27.25v27.25H218V44h-22zm-97.294 48.207-1.505 6.708 8.589 13.542c10.344 16.311 11.595 17.997 15.033 20.265 6.24 4.115 16.466.725 18.871-6.257.666-1.934 1.218-9.097 1.25-16.215L141 122h-11v12.893c0 10.623-.268 12.996-1.523 13.477-2.265.87-3.941-1.293-15.977-20.617-6.05-9.713-11.29-17.681-11.645-17.707s-1.322 2.972-2.149 6.661m128.087 77.792.292 18.501h2.958c2.01 0 2.957-.499 2.957-1.557 0-1.409.211-1.409 2.223 0 1.26.883 4.295 1.557 7.014 1.557 4.038 0 5.365-.525 8.432-3.335 3.173-2.908 3.699-4.053 4.104-8.94.375-4.521.051-6.273-1.674-9.065-1.177-1.904-2.918-3.778-3.869-4.165-6.039-2.455-8.421-2.454-14.48.008-1.553.631-1.75.024-1.75-5.396V176l-3.25-.001-3.25-.001zM1.599 177.734c-.329.33-.599 8.426-.599 17.993v17.394l3.75-.311 3.75-.31v-10.75c0-5.913.258-10.75.573-10.75s4.59 4.947 9.5 10.994c8.06 9.926 9.245 10.994 12.2 11l3.273.006-.273-17.75-.273-17.75-3.218-.311-3.217-.311-.283 11.718-.282 11.719-9.5-11.388c-7.348-8.808-10.101-11.434-12.151-11.59-1.458-.111-2.92.068-3.25.397m152.627 17.516.274 17.25 3.25.313 3.25.314V198h18v15h7v-35h-7v14.078l-8.75-.289-8.75-.289-.296-6.75-.295-6.75h-6.956zm-66.903-9.554c-1.198.233-2.716 1.072-3.373 1.864-1.55 1.868-2.95 1.84-2.95-.06 0-1.048-1.056-1.5-3.5-1.5H74v27h7v-6.351c0-3.493.472-7.706 1.05-9.362 1.005-2.883 4.413-5.287 7.497-5.287.994 0 1.453-1.106 1.453-3.5 0-1.925-.338-3.439-.75-3.364s-1.73.327-2.927.56m11.962 1.261c-4.485 2.036-6.019 4.984-4.904 9.424.638 2.541 5.889 5.619 9.586 5.619 2.984 0 6.033 1.777 6.033 3.516 0 2.961-6.524 2.91-13.578-.107-.592-.253-1.58.642-2.194 1.989-1.775 3.897.662 5.102 10.321 5.102 9.883 0 12.451-1.547 12.451-7.5 0-4.808-2.189-6.703-9.419-8.155-5.782-1.162-8.114-3.261-5.477-4.931 1.911-1.21 7.607-1.139 9.966.124 1.615.864 2.132.612 3.097-1.505 1.397-3.067 1.072-3.457-3.838-4.597-5.509-1.278-7.316-1.125-12.044 1.021m30.456-.56c-5.173 1.89-6.373 3.073-8.337 8.215-2.123 5.559-.915 10.566 3.591 14.883 2.559 2.452 4.041 2.976 9.366 3.315 4.539.289 7.218-.058 9.483-1.229 3.645-1.885 3.849-2.644 1.321-4.932-1.692-1.531-2.086-1.535-5.047-.058-2.027 1.011-4.209 1.354-5.915.928-2.813-.702-6.203-3.237-6.203-4.639 0-.446 4.613-.938 10.25-1.095l10.25-.285-.111-3.713c-.269-9.034-9.564-14.711-18.648-11.39M41 196.577c0 10.357.061 10.638 2.923 13.5 2.428 2.428 3.745 2.923 7.778 2.923 2.775 0 5.806-.667 7.076-1.557 2.012-1.409 2.223-1.409 2.223 0 0 1.113.999 1.557 3.5 1.557H68v-27h-7v7.566c0 10.151-1.732 13.388-7.179 13.419-4.761.027-5.821-2.168-5.821-12.056V186h-7zm152-1.124c0 10.567 1.106 14.033 5.145 16.122 3.633 1.878 9.855 1.814 12.632-.132 2.012-1.409 2.223-1.409 2.223 0 0 1.113.999 1.557 3.5 1.557h3.5v-27h-7v8.311c0 9.501-1.751 12.689-6.968 12.689-4.988 0-6.032-2.09-6.032-12.071V186h-7zm-62.777-2.896C125.884 195.595 127.395 197 135 197c7.412 0 8.294-.706 5-4-2.393-2.393-6.715-2.588-9.777-.443m105.857.193c-1.177.963-2.398 3.359-2.713 5.325-1.194 7.466 8.294 12.532 12.875 6.874 5.799-7.161-3.162-17.92-10.162-12.199"/><path fill="#1976D2" fill-opacity=".281" fill-rule="evenodd" d="M45.329 44.458c-5.921 2.575-5.784 1.299-6.329 59.292l-.5 53.251L49.234 157h10.734l.266-27.75.266-27.75h18.832l3.144 9.429c4.943 14.819 8.038 15.073 11.29.926 1.183-5.145 3.11-13.517 4.282-18.605S100.53 84 100.959 84c.43 0 1.292 2.588 1.917 5.75s1.605 7.438 2.177 9.5l1.041 3.75H131v6.5c0 6.127.133 6.5 2.314 6.5h2.313l.108-18 .108-18h-2.422c-2.313 0-2.421.29-2.421 6.5V93h-20.962l-.692-2.75c-.381-1.513-1.86-7.7-3.286-13.75-2.422-10.27-2.764-11.02-5.161-11.3-2.792-.327-2.116-2.479-10.7 34.05-.872 3.713-1.866 6.75-2.21 6.75s-1.404-2.475-2.357-5.5L83.898 95H48V75.582c0-10.68.273-20.13.607-21 1.631-4.25 4.386-1.352 15.567 16.372L75.5 88.908l5.809.046c4.38.035 5.629-.262 5.078-1.204-9.527-16.284-26.436-41.418-28.858-42.895-3.566-2.175-7.797-2.313-12.2-.397m53.701 72.381-1.292 6.851 8.795 13.905c4.837 7.648 9.921 15.132 11.296 16.632 5.401 5.889 13.959 6.057 18.951.371 3.292-3.749 4.235-9.037 4.148-23.256l-.05-8.157-4.94-.343-4.939-.342v11.559c.001 12.773-1.203 16.456-4.69 14.348-.995-.601-6.984-9.231-13.309-19.176-6.325-9.946-11.765-18.344-12.089-18.663s-1.17 2.504-1.881 6.271M2 195.5V213h6v-11.5c0-6.325.338-11.468.75-11.429s4.94 5.214 10.062 11.5C26.064 210.472 28.663 213 30.562 213c1.341 0 2.472-.338 2.513-.75.042-.412.175-8.287.296-17.5l.221-16.75H27v11c0 6.05-.337 10.981-.75 10.957s-4.752-4.973-9.644-11C9.05 179.649 7.282 178 4.856 178H2zm39-.047c0 5.199.538 10.633 1.195 12.075 2.292 5.03 9.985 6.982 15.757 3.997 2.515-1.301 2.92-1.301 3.419 0 .311.811 1.705 1.475 3.098 1.475H67v-27h-6v8.389c0 6.535-.387 8.846-1.75 10.458-2.634 3.112-6.424 3.643-9.313 1.304-2.201-1.782-2.471-2.854-2.786-11.062l-.35-9.089H41zm34 3.865v13.318h6v-7.863c0-7.016.265-8.129 2.455-10.318 1.35-1.35 3.6-2.455 5-2.455 2.161 0 2.545-.452 2.545-3 0-2.488-.404-3-2.365-3-1.301 0-3.551.933-5 2.073L81 190.145v-2.072c0-1.637-.632-2.073-3-2.073h-3zm24.357-12.326c-2.604 1.05-5.357 4.79-5.357 7.276 0 3.102 4.391 6.518 9.329 7.259 6.129.919 8.575 2.679 6.761 4.865-1.559 1.878-6.421 2.086-11.048.473-2.614-.911-3.43-.862-4.134.25-1.674 2.643-.886 3.814 3.335 4.95 9.63 2.593 18.757-.929 18.757-7.239 0-4.089-2.849-6.339-9.743-7.696-3.339-.657-6.308-1.821-6.603-2.589-1.19-3.102 4.583-4.886 10.556-3.261 2.151.586 2.933.322 3.79-1.28.925-1.728.705-2.162-1.525-3.009-3.143-1.196-11.155-1.195-14.118.001m27.555 1.288c-4.191 2.825-5.879 6.038-5.894 11.22-.023 8.529 6.827 14.154 16.147 13.258 2.597-.249 5.863-1.202 7.259-2.116 2.392-1.568 2.443-1.774.888-3.591-1.501-1.752-1.903-1.797-4.432-.489-1.529.791-3.725 1.438-4.88 1.438-4.047 0-9-3.622-9-6.582 0-.23 4.89-.418 10.866-.418h10.865l-.69-3.75c-.38-2.062-1.233-4.758-1.896-5.99-2.917-5.422-13.235-7.021-19.233-2.98m2.158 5.146c-1.254 1.334-2.023 2.841-1.71 3.347.313.507 3.735 1.014 7.605 1.127 6.314.185 7.035.011 7.035-1.692 0-5.205-8.863-7.112-12.93-2.782"/></svg>