<svg xmlns="http://www.w3.org/2000/svg" width="256" height="256"><path fill="#1976D2" fill-opacity=".016" fill-rule="evenodd" d="M0 128.004v128.004l128.25-.254 128.25-.254.254-127.75L257.008 0H0zm.485.496c0 70.4.119 99.053.265 63.672s.146-92.98 0-128S.485 58.1.485 128.5"/><path fill="#1976D2" fill-opacity=".139" fill-rule="evenodd" d="M45.034 43.752c-1.906.961-4.381 3.323-5.5 5.248-1.975 3.399-2.034 5.021-2.034 56v52.5l11.75.282 11.75.281V102h17.519l3.49 10.25c3.388 9.947 3.58 10.25 6.491 10.25 3.514 0 3.482.083 8.738-22.5l3.375-14.5 1.288 5.5a728 728 0 0 0 2.232 9.25l.944 3.75H130v13h11v-12.909l6.677-.295 6.678-.296.062-5.5.062-5.5-6.739-.296-6.74-.295V79h-11v13h-19.533l-3.484-13.75c-3.168-12.506-3.697-13.78-5.848-14.085-1.301-.184-2.757.057-3.235.535s-2.691 8.729-4.917 18.335c-5.452 23.525-4.978 22.404-6.974 16.465l-1.68-5-17.664-.273L49 93.954V73.977c0-18.368.141-19.975 1.75-19.954 1.171.015 5.504 5.972 13.093 18L75.185 90h6.408c3.524 0 6.407-.201 6.407-.447 0-.961-25.251-40.193-27.312-42.432-2.368-2.574-7.546-5.122-10.406-5.119-.98 0-3.342.788-5.248 1.75m94.466-.256c-2.2.811-4.096 1.481-4.214 1.489s-1.355 1.694-2.75 3.747c-2.327 3.424-2.536 4.621-2.536 14.5V74h10.928l.286-9.75.286-9.75 2.683-.31c4.263-.492 4.927 2.1 4.757 18.58l-.152 14.73 5.606.3 5.606.3V71.762c0-14.972-.188-16.706-2.25-20.742-3.882-7.596-10.57-10.353-18.25-7.524M195 67.977v23.977l-17.75.273-17.75.273-.3 5.75-.3 5.75H195v54h24V44h-24zM99.69 109.75c-.235.412-1.01 3.741-1.721 7.396l-1.294 6.645 9.102 14.355c5.007 7.895 10.094 15.416 11.305 16.714 5.058 5.423 12.914 6.291 18.337 2.025 4.837-3.804 5.581-6.65 5.581-21.335V122h-11v11.418c0 20.301-1.124 19.973-16.872-4.918-6.786-10.725-12.489-19.5-12.674-19.5s-.528.338-.764.75M226 194.44V214h3.031c1.75 0 3.271-.624 3.598-1.475.499-1.301.904-1.301 3.419 0 6.133 3.171 14.268.633 17.403-5.431.852-1.647 1.549-5.064 1.549-7.594s-.697-5.947-1.549-7.594c-3.101-5.997-11.271-8.605-17.251-5.507l-2.7 1.399V175.5l-3.75-.31-3.75-.311zM.917 177.414c-.23.228-.285 8.579-.123 18.558l.294 18.143 3.706-.307L8.5 213.5l.5-10.837.5-10.836 8.5 10.571c8.142 10.126 11.208 12.504 14.498 11.241 1.259-.483 1.502-3.49 1.502-18.608V177h-7.934l-.283 11.047-.283 11.048-9-11.044c-7.92-9.719-9.37-11.044-12.083-11.047-1.696-.002-3.271.182-3.5.41M154 195.34v18.46l3.75-.15 3.75-.15.293-7.814.293-7.814 7.707.221 7.707.22.5 7.594.5 7.593 3.75.31 3.75.311V177h-8v14h-15.909l-.295-6.75-.296-6.75-3.75-.31-3.75-.311zm-113.286-9.721c-.393.393-.712 5.027-.71 10.298.004 10.691 1.766 15.285 6.562 17.108 3.736 1.421 8.677 1.194 11.11-.511 1.886-1.32 2.187-1.313 2.716.064.407 1.062 1.619 1.451 3.851 1.236l3.257-.314v-28h-7l-.5 9.334c-.532 9.937-1.725 12.186-6.441 12.151-4.365-.033-5.035-1.444-5.559-11.695l-.5-9.79-3.036-.297c-1.67-.164-3.357.024-3.75.416M74 199.56v14.561l3.75-.311 3.75-.31.294-8.47c.33-9.509 1.663-12.03 6.361-12.03 2.667 0 2.845-.258 2.845-4.125 0-4.103-.017-4.122-3.184-3.488-1.752.35-4.002 1.376-5 2.28-1.701 1.539-1.816 1.507-1.816-.512 0-1.796-.583-2.155-3.5-2.155H74zm23.911-12.279c-4.259 2.87-5.773 6.74-3.961 10.126 1.425 2.662 4.121 4.02 10.878 5.48 4.91 1.061 5.646 1.537 4.713 3.046-.872 1.411-9.108 1.369-11.778-.06-1.724-.923-2.35-.791-3.463.731-2.043 2.794-1.166 4.763 2.712 6.09 11.652 3.987 23.486-2.25 20.042-10.563-1.337-3.228-4.168-4.753-10.975-5.909-2.432-.413-4.606-1.304-4.832-1.98-.649-1.949 4.151-3.275 7.929-2.192 4.783 1.372 5.375 1.23 6.665-1.6 1.085-2.383.933-2.646-2.307-4-5.238-2.189-11.648-1.848-15.623.831m30.539-.874c-1.677.73-4.312 2.829-5.855 4.663-2.52 2.995-2.764 3.924-2.388 9.118.316 4.364 1.017 6.434 2.856 8.427 4.756 5.157 12.653 6.784 19.347 3.987 4.501-1.881 5.241-3.396 2.833-5.803-1.619-1.62-2.39-1.791-4.055-.899-4.272 2.286-13.188.287-13.188-2.957 0-.532 4.636-.943 10.63-.943h10.63l-.514-4.562c-1.077-9.557-11.133-15.022-20.296-11.031m64.264-.788c-1.322 1.322-.772 18.306.707 21.847 2.435 5.827 9.898 8.181 15.943 5.028 3.516-1.834 3.636-1.836 3.636-.081 0 .961 1.04 1.361 3.25 1.25l3.25-.163v-28h-7l-.5 9.334c-.535 9.98-1.709 12.166-6.536 12.166-4.057 0-5.357-2.874-5.672-12.532l-.292-8.968-3.036-.297c-1.67-.164-3.357.024-3.75.416m-63.143 7.952c-2.737 2.738-1.745 3.429 4.929 3.429 3.575 0 6.5-.418 6.5-.929 0-2-3.307-4.071-6.5-4.071-1.846 0-4.064.707-4.929 1.571m105.884.479c-1.041 1.15-1.855 3.541-1.855 5.45 0 4.454 2.802 7.5 6.9 7.5 4.273 0 6.5-2.663 6.5-7.772 0-3.118-.538-4.492-2.223-5.671-3.081-2.159-7.116-1.945-9.322.493"/><path fill="#1976D2" fill-opacity=".468" fill-rule="evenodd" d="M43.615 45.088C37.883 49.597 38 48.34 38 105.45V158h22v-56h18.781l3.359 9.665c3.547 10.203 5.722 12.909 8.295 10.318.81-.816 3.298-9.358 5.531-18.983s4.199-17.939 4.371-18.475 1.324 3.402 2.56 8.75l2.247 9.725H130v14.105l5.122-.303 5.123-.302.199-6.5.199-6.5 6.678-.296 6.679-.295v-9.818l-6.75-.295-6.75-.296.351-6.25c.311-5.539.14-6.251-1.5-6.261-1.018-.006-3.538-.29-5.601-.631l-3.75-.62V93h-19.765l-3.401-13.662c-3.541-14.228-5.326-17.339-8.216-14.321-.781.816-3.065 8.683-5.076 17.483s-4.135 17.8-4.721 20l-1.065 4-1.738-5.5-1.737-5.5L66.39 95l-17.89-.5-.271-19.61c-.225-16.31-.022-19.817 1.207-20.836.812-.675 1.915-.955 2.452-.623s5.575 7.907 11.198 16.836 10.757 16.82 11.409 17.538c.782.86 3.133 1.201 6.909 1l5.723-.305-13.228-20.864c-8.915-14.064-14.233-21.478-16.313-22.747-4.175-2.546-10.598-2.454-13.971.199m93.689-.132c-5.644 3.442-6.745 6.247-7.155 18.236L129.779 74h5.065c4.935 0 5.079-.083 5.615-3.25.302-1.787.66-6.128.795-9.646.273-7.101 2.12-9.618 5.496-7.491 1.529.963 1.785 3.142 2.025 17.245L149.05 87H159V70.46c0-14.425-.249-17.028-1.95-20.362-3.411-6.686-13.082-9.205-19.746-5.142M196 68.5V93h-36v10h36v55h22V44h-22zm-96.581 44.25a351 351 0 0 1-1.576 6.566c-1.08 4.312-1.409 3.629 11.423 23.684 4.312 6.739 8.739 12.431 10.694 13.75 3.92 2.644 9.787 2.95 14.073.733 5.213-2.696 6.38-6.433 6.79-21.733l.369-13.75H130v12.378c0 9.975-.302 12.628-1.555 13.667-2.197 1.824-3.274.489-16.385-20.295-6.158-9.763-11.382-17.75-11.609-17.75s-.692 1.237-1.032 2.75M226 194.5V213h3.5c2.501 0 3.5-.444 3.5-1.557 0-1.409.211-1.409 2.223 0 3.287 2.303 10.924 2.016 14.162-.531 7.707-6.062 7.289-18.148-.812-23.456-2.577-1.689-10.082-1.703-13.823-.026-1.561.699-1.75.125-1.75-5.323V176h-7zm-225 1V213h7v-11c0-6.05.338-10.97.75-10.934s4.741 4.986 9.619 11C26.486 212.073 27.525 213 30.619 213H34v-35h-8v22.136l-9.122-11.068C8.549 178.962 7.463 178 4.378 178H1zm153 0V213h7v-15h18v15h7v-35h-7v14h-18v-14h-7zm-52.167-9.812c-1.467.236-3.856 1.531-5.31 2.878-2.113 1.959-2.581 3.199-2.333 6.192.261 3.149.865 4.014 3.81 5.46 1.925.944 5.211 1.982 7.303 2.305s4.069 1.283 4.395 2.133c1.263 3.29-5.192 4.418-11.115 1.943-3.208-1.34-3.4-1.295-4.468 1.047-1.448 3.179-1.537 2.952 1.635 4.148 7.43 2.802 15.419 2.037 19.303-1.847 2.352-2.352 2.593-8.166.414-9.975-.844-.7-4.327-2.003-7.741-2.895-4.189-1.095-6.313-2.173-6.533-3.314-.446-2.316 4.137-3.355 9.031-2.049 3.319.886 3.976.78 4.81-.778.531-.993.966-2.043.966-2.335 0-1.827-9.181-3.715-14.167-2.913m27.851.749c-4.998 1.798-7.352 4.026-8.76 8.292-2.18 6.607.61 13.944 6.451 16.965 4.23 2.187 12.552 2.053 16.479-.267 3.662-2.163 3.769-2.553 1.311-4.778-1.686-1.525-2.093-1.531-5.009-.077-3.858 1.925-8.399 1.154-11.263-1.911l-2.018-2.161 10.812-.5 10.813-.5-.219-3.737c-.52-8.903-9.734-14.514-18.597-11.326M40 194.532c0 13.353 3.313 18.801 11.434 18.801 2.454 0 5.551-.749 6.987-1.689 2.237-1.466 2.579-1.488 2.579-.167 0 1.074 1.032 1.523 3.5 1.523H68v-27h-7.789l.039 8.512c.045 9.873-1.375 12.488-6.783 12.488-4.897 0-5.868-1.983-5.92-12.091l-.047-8.897-3.75-.006L40 186zm34 4.968V213h7v-6.953c0-3.824.5-8.049 1.11-9.39 1.105-2.425 4.669-4.657 7.437-4.657.948 0 1.453-1.043 1.453-3 0-2.544-.385-3-2.535-3-1.395 0-3.645.727-5 1.615-2.269 1.487-2.465 1.487-2.465 0 0-1.179-.945-1.615-3.5-1.615H74zm119-2.923c0 10.357.061 10.638 2.923 13.5 2.428 2.428 3.745 2.923 7.778 2.923 2.775 0 5.806-.667 7.076-1.557 2.012-1.409 2.223-1.409 2.223 0 0 1.063.951 1.557 3 1.557h3v-27h-5.795l-.352 8.396c-.411 9.771-2.071 12.604-7.386 12.604-4.897 0-5.868-1.983-5.92-12.091l-.047-8.897-3.25-.006L193 186zm-63.795-2.827-2.705 2.75 3.724.309c2.048.17 5.648.17 8 0l4.276-.309-2.705-2.75c-1.57-1.596-3.791-2.75-5.295-2.75s-3.725 1.154-5.295 2.75m108.11-1.765c-6.338 2.617-5.494 13.749 1.17 15.422 2.913.731 7.957-1.51 8.894-3.952 2.775-7.232-3.367-14.233-10.064-11.47"/><path fill="#1976D2" fill-opacity=".287" fill-rule="evenodd" d="M45.452 44.406c-1.676.73-3.926 2.625-5 4.211-1.866 2.755-1.965 5.218-2.236 55.633L37.933 157H60v-56h9.433c8.909 0 9.471.125 10.128 2.25.383 1.237 2.039 5.987 3.682 10.555 2.779 7.729 3.167 8.285 5.584 8 2.499-.293 2.734-.909 6.223-16.342 4.921-21.765 4.952-21.874 5.861-20.858.441.492 1.642 4.833 2.67 9.645l1.87 8.75h25.415l-.183 6.501c-.173 6.13-.055 6.501 2.067 6.5 1.656-.001 2.259-.595 2.283-2.251.019-1.237.131-9.338.25-18.001l.217-15.75-2.5-.001c-2.4-.002-2.5.248-2.5 6.25V92.5h-20.93l-2.597-11c-4.121-17.455-3.752-16.5-6.385-16.5-2.864 0-2.259-1.719-7.659 21.745-2.436 10.585-4.744 19.247-5.128 19.25s-1.479-2.47-2.433-5.495L83.635 95H47.959l.271-20.75c.361-27.719.245-27.695 15.746-3.288L75.432 89h11.629l-3.679-5.75A4861 4861 0 0 1 71.187 64C60.082 46.393 60.029 46.323 56.349 44.533c-3.813-1.855-6.848-1.891-10.897-.127m53.327 72.3-1.587 6.632 8.914 14.081c4.903 7.745 10.25 15.521 11.883 17.282 5.135 5.536 13.411 5.62 18.62.188 2.877-3 2.893-3.082 3.215-17.452l.324-14.437h-9.876l-.17 12.151c-.094 6.683-.406 12.533-.695 13s-1.345.849-2.347.849c-1.266 0-4.965-4.961-12.117-16.25-5.662-8.937-11.258-17.696-12.436-19.463l-2.141-3.213zM1 195.5V213h6.937l.281-11.682.282-11.683 9.5 11.673c7.931 9.745 9.954 11.674 12.25 11.682L33 213v-35h-6v11c0 6.05-.371 11-.824 11s-4.84-4.94-9.75-10.978c-8.015-9.857-9.258-10.981-12.176-11L1 178zm40 1.077c0 10.357.061 10.638 2.923 13.5 2.342 2.342 3.795 2.923 7.309 2.923 2.412 0 5.259-.661 6.327-1.468 2.498-1.89 3.441-1.898 3.441-.032q0 1.5 3 1.5h3v-27h-6v7.435c0 4.089-.442 8.597-.982 10.018-1.089 2.863-5.268 4.92-8.144 4.007-4.119-1.307-4.874-3.249-4.874-12.531V186h-6zm34 2.923V213h6v-8.045c0-7.209.255-8.301 2.455-10.5 1.35-1.35 3.487-2.455 4.75-2.455 1.883 0 2.295-.538 2.295-3 0-2.388-.432-3-2.115-3-1.163 0-3.301.933-4.75 2.073L81 190.145v-2.072c0-1.637-.632-2.073-3-2.073h-3zm25-12.794c-3.122 1.142-6 4.705-6 7.429 0 3.925 3.453 6.724 9.243 7.492 5.691.755 8.46 2.822 6.669 4.979-1.361 1.64-7.626 1.833-11.514.355-2.777-1.056-4.346-.092-4.383 2.691-.039 2.957 13.188 4.481 17.955 2.069 3.358-1.699 5.489-5.754 4.693-8.928-.681-2.714-6.524-5.793-10.992-5.793-1.259 0-3.145-.626-4.192-1.392-1.617-1.182-1.703-1.633-.569-3 1.493-1.799 8.133-2.19 11.014-.649 1.43.766 2.021.457 2.925-1.528 1.017-2.231.87-2.587-1.423-3.459-2.703-1.028-10.898-1.19-13.426-.266m28.418.208c-6.87 2.96-9.942 13.491-5.798 19.884 3.718 5.737 13.88 8.063 20.43 4.676 3.329-1.721 3.627-2.667 1.42-4.499-1.18-.979-2.104-1.007-4.047-.122-4.124 1.879-8.277 1.384-10.968-1.308-1.35-1.35-2.455-2.925-2.455-3.5 0-.66 3.862-1.045 10.5-1.045H148v-3.515c0-2.589-.878-4.472-3.335-7.154-2.924-3.191-4.003-3.681-8.75-3.976-2.978-.185-6.352.066-7.497.559m.621 6.275c-3.69 3.96-2.725 4.811 5.461 4.811 8.201 0 9.405-1.095 5.5-5-2.75-2.75-8.313-2.654-10.961.189"/></svg>