<svg xmlns="http://www.w3.org/2000/svg" width="256" height="256"><path fill="#1976D2" fill-opacity=".016" fill-rule="evenodd" d="M0 128.004v128.004l128.25-.254 128.25-.254.254-127.75L257.008 0H0zm.485.496c0 70.4.119 99.053.265 63.672s.146-92.98 0-128S.485 58.1.485 128.5"/><path fill="#1976D2" fill-opacity=".115" fill-rule="evenodd" d="M95.2 97.2c-.855.855-1.2 7.044-1.2 21.5V139h9v-21.127l3.167.314c2.617.259 3.371.921 4.339 3.813 1.946 5.815 4.007 4.997 5.555-2.205 1.27-5.906 1.414-6.125 2.339-3.545.868 2.422 1.5 2.75 5.293 2.75 3.927 0 4.307.22 4.307 2.5 0 2 .5 2.5 2.5 2.5s2.5-.5 2.5-2.5.5-2.5 2.5-2.5 2.5-.5 2.5-2.5-.5-2.5-2.5-2.5c-2.018 0-2.5-.495-2.5-2.57 0-2.092-.418-2.51-2.25-2.25-1.446.206-2.364 1.124-2.57 2.57-.26 1.834-.953 2.25-3.75 2.25-2.074 0-3.432-.494-3.436-1.25-.003-.687-.474-2.937-1.047-5-1.579-5.688-3.649-4.753-5.032 2.274-.651 3.314-1.574 6.265-2.05 6.559s-.865.058-.865-.524c0-.644-2.74-1.059-7-1.059h-7v-5.918c0-9.843.732-10.12 5.719-2.165 3.597 5.737 4.921 7.083 6.968 7.083 3.163 0 2.907-.728-3.685-10.497C102.742 97.19 101.5 96 99.17 96c-1.524 0-3.31.54-3.97 1.2m34.755.355c-.71.855-1.327 3.442-1.373 5.75-.071 3.619.227 4.239 2.168 4.515 2.023.287 2.25-.099 2.25-3.834 0-2.876.384-4.026 1.25-3.74.774.256 1.363 2.763 1.548 6.583.258 5.352.556 6.171 2.25 6.171 1.738 0 1.952-.72 1.952-6.566 0-3.611-.466-7.436-1.035-8.5-1.283-2.397-7.131-2.644-9.01-.379M153 104.954v8.955l-6.75.295c-5.985.262-6.75.523-6.75 2.296s.765 2.034 6.75 2.296l6.75.295V139h9V96h-9zm-36.429 18.618C115.496 127.855 123.56 140 127.479 140c4.008 0 5.521-2.504 5.521-9.141 0-5.648-.131-5.979-2.25-5.679-1.902.271-2.327 1.082-2.75 5.242l-.5 4.923-4.758-7.173c-2.617-3.944-4.931-7.172-5.142-7.172s-.674 1.157-1.029 2.572m48.117 22.074c-.379.378-.688 3.762-.688 7.521V160h4.965c5.211 0 7.035-1.498 7.035-5.779 0-2.648-3.504-5.584-5.912-4.954-1.445.378-2.059-.038-2.283-1.547-.32-2.163-1.946-3.245-3.117-2.074M80 153c0 5.556.31 7 1.5 7 .825 0 1.5-.863 1.5-1.918 0-4.668 1.08-5.061 4.187-1.521C91.869 161.892 93 161.199 93 153c0-5.556-.31-7-1.5-7-1.095 0-1.505 1.148-1.52 4.25l-.019 4.25-3.564-4.25C81.186 144.034 80 144.544 80 153m57.667-6.333c-.367.366-.667 3.516-.667 7 0 5.666.211 6.333 2 6.333 1.467 0 2-.667 2-2.5 0-2.111.467-2.5 3-2.5s3 .389 3 2.5c0 1.556.567 2.5 1.5 2.5 1.19 0 1.5-1.444 1.5-7s-.31-7-1.5-7c-.933 0-1.5.944-1.5 2.5 0 2.111-.467 2.5-3 2.5s-3-.389-3-2.5c0-2.353-1.815-3.351-3.333-1.833M95 152.918c0 6.373.617 7.082 6.159 7.082h4.946l-.303-5.25c-.222-3.866-.698-5.25-1.802-5.25-1.011 0-1.601 1.221-1.81 3.75-.244 2.938-.731 3.75-2.25 3.75-1.597 0-1.94-.708-1.94-4 0-2.889-.417-4-1.5-4-1.078 0-1.5 1.102-1.5 3.918m12.5-3.085c-.275.275-.5 2.675-.5 5.334 0 4.166.276 4.833 2 4.833 1.622 0 2-.667 2-3.531 0-2.217.559-3.746 1.5-4.107 2.634-1.011 1.635-3.029-1.5-3.029-1.65 0-3.225.225-3.5.5m8.7.367c-2.234 2.234-1.389 4.812 1.784 5.447 1.641.328 2.777.931 2.524 1.341s-1.596.527-2.984.261c-1.886-.36-2.524-.059-2.524 1.192 0 1.351.82 1.615 4.25 1.366 3.544-.256 4.303-.684 4.572-2.575.247-1.744-.446-2.622-3-3.798-3.145-1.447-3.174-1.507-.548-1.116 3.092.461 4.736-1.064 2.604-2.414-1.973-1.25-5.278-1.104-6.678.296m10.371.371c-1.964 1.965-2.043 6.792-.136 8.375 2.212 1.836 8.096.948 7.926-1.196-.076-.963.261-1.75.75-1.75 1.582 0 .942-3.642-.94-5.345-2.304-2.086-5.562-2.122-7.6-.084M152 153.3c0 5.414 1.296 6.7 6.752 6.7h4.353l-.303-5.25c-.222-3.866-.698-5.25-1.802-5.25-1.016 0-1.601 1.23-1.814 3.811-.243 2.943-.698 3.738-2 3.492-1.152-.218-1.784-1.506-1.996-4.061-.462-5.56-3.19-5.083-3.19.558m-23-.3c0 .55.675 1 1.5 1s1.5-.45 1.5-1-.675-1-1.5-1-1.5.45-1.5 1m39.667-.333c-.367.366-.667 1.491-.667 2.5 0 2.093 3.572 2.581 4.269.583.959-2.749-1.679-5.007-3.602-3.083m-38.917 3.995c.688.278 1.813.278 2.5 0 .688-.277.125-.504-1.25-.504s-1.937.227-1.25.504"/><path fill="#1976D2" fill-opacity=".487" fill-rule="evenodd" d="M95.655 97.829C94.233 99.4 94 102.428 94 119.329V139h9v-21h3.342c3.041 0 3.451.366 4.559 4.064.695 2.318 1.727 3.893 2.405 3.667.653-.217 1.876-3.508 2.718-7.313l1.531-6.918 1.005 3.5c.946 3.295 1.281 3.518 5.722 3.805 4.294.277 4.718.531 4.718 2.823 0 3.201 3.348 2.914 3.811-.327.193-1.348 1.142-2.297 2.49-2.49 3.28-.469 3.519-3.811.272-3.811-2.078 0-2.573-.481-2.573-2.5 0-1.833-.533-2.5-2-2.5s-2 .667-2 2.5c0 2.242-.405 2.5-3.929 2.5h-3.929l-1.154-5.556c-.707-3.408-1.604-5.406-2.32-5.168-.643.214-1.919 3.502-2.836 7.306-.918 3.805-1.734 7.143-1.814 7.418s-.552-.513-1.049-1.75c-.809-2.011-1.597-2.25-7.437-2.25H98v-7.5c0-4.125.4-7.5.888-7.5.489 0 2.723 2.925 4.964 6.5 2.845 4.538 4.69 6.5 6.112 6.5 1.12 0 2.036-.259 2.036-.575 0-1.001-9.206-14.892-10.379-15.66-1.917-1.256-4.242-.842-5.966 1.064m35 0c-.993 1.097-1.655 3.527-1.655 6.073 0 3.502.306 4.187 1.75 3.913 1.223-.232 1.843-1.458 2.06-4.073.203-2.446.809-3.742 1.75-3.742 1.107 0 1.44 1.52 1.44 6.573 0 5.721.227 6.53 1.75 6.241 2.464-.469 3.032-10.972.78-14.409-1.887-2.879-5.549-3.147-7.875-.576m23.059-1.21c-.393.393-.714 4.689-.714 9.548V115h-6.5c-5.833 0-6.5.205-6.5 2s.667 2 6.5 2h6.5v20h9.04l-.27-21.25-.27-21.25-3.536-.298c-1.944-.163-3.857.024-4.25.417m-36.962 26.899c-.727 3.804 7.674 16.482 10.922 16.482 3.018 0 5.326-3.9 5.326-9 0-4.333-.267-5-2-5-1.7 0-2 .667-2 4.441 0 2.443-.404 4.691-.899 4.996-.494.306-3.001-2.818-5.571-6.941S117.717 121 117.546 121s-.529 1.133-.794 2.518m-36.085 23.149c-.367.366-.667 3.516-.667 7 0 4.963.325 6.333 1.5 6.333 1.091 0 1.512-1.158 1.543-4.25l.042-4.25 3.735 4.25c2.054 2.338 4.305 4.25 5.003 4.25 1.747 0 1.198-13.168-.573-13.754-.867-.286-1.263.914-1.291 3.921l-.041 4.333-3.845-4.25c-4.035-4.46-4.332-4.657-5.406-3.583M165 152.788v6.787l4.011.16c5.051.201 7.653-2.858 6.04-7.1-.82-2.159-1.638-2.635-4.526-2.635-2.858 0-3.525-.378-3.525-2 0-1.1-.45-2-1-2-.568 0-1 2.929-1 6.788m-27 .712c0 3.667.436 6.5 1 6.5.55 0 1-1.35 1-3 0-2.762.278-3 3.5-3s3.5.238 3.5 3q0 3 1.5 3c1.179 0 1.5-1.389 1.5-6.5s-.321-6.5-1.5-6.5c-.933 0-1.5.944-1.5 2.5 0 2.19-.433 2.5-3.5 2.5s-3.5-.31-3.5-2.5c0-1.375-.45-2.5-1-2.5-.564 0-1 2.833-1 6.5m-20.787-3.383c-3.147 1.164-2.738 3.859.787 5.189 3.925 1.482 3.869 3.118-.08 2.328-2.211-.442-2.966-.266-2.673.625.616 1.877 6.211 2.099 7.7.305 1.673-2.017.637-4.564-1.857-4.564-1.084 0-2.25-.45-2.59-1-.351-.567.49-1 1.941-1 1.407 0 2.559-.398 2.559-.883 0-1.347-3.305-1.918-5.787-1m10.621.272c-5.211 2.584-2.155 10.121 3.828 9.436 1.561-.179 2.613-.775 2.338-1.325s-1.479-.876-2.675-.724-2.46-.186-2.809-.75c-.387-.627.728-1.026 2.866-1.026 4.028 0 5.139-1.158 3.696-3.854-1.325-2.476-4.326-3.204-7.244-1.757M95 153.878c0 4.711 1.498 6.118 6.324 5.936l3.676-.138v-4.838c0-2.661-.45-4.838-1-4.838s-1 1.295-1 2.878c0 3.079-2.239 5.71-3.956 4.649-.574-.355-1.044-2.193-1.044-4.086 0-2.392-.457-3.441-1.5-3.441-1.075 0-1.5 1.098-1.5 3.878m13 1.274c0 2.666.45 4.848 1 4.848s1-1.346 1-2.992c0-1.908.724-3.443 2-4.24 2.829-1.767 2.483-2.648-1-2.549-2.909.083-3 .232-3 4.933m44-2.086c0 5.185 1.498 6.848 6.007 6.668l3.993-.159v-4.787c0-2.634-.45-4.788-1-4.788s-1 1.295-1 2.878c0 3.079-2.239 5.71-3.956 4.649-.574-.355-1.044-2.193-1.044-4.086 0-2.392-.457-3.441-1.5-3.441-1.007 0-1.5 1.007-1.5 3.066M128 153c0 .55 1.125 1 2.5 1s2.5-.45 2.5-1-1.125-1-2.5-1-2.5.45-2.5 1m39.59.627c-.709 1.848 1.003 4.373 2.965 4.373 1.51 0 2.875-3.495 1.951-4.991-.981-1.587-4.227-1.179-4.916.618"/><path fill="#1976D2" fill-opacity=".289" fill-rule="evenodd" d="M96.2 97.2c-.855.855-1.2 7.044-1.2 21.5V139h7v-21h3.848c3.595 0 3.96.28 5.543 4.25 1.978 4.963 2.637 4.294 4.545-4.605 1.199-5.598 2.462-6.437 3.226-2.145.287 1.614 1.272 2.059 5.097 2.305 4.279.275 4.741.543 4.741 2.75 0 1.345.45 2.445 1 2.445.564 0 1-2.833 1-6.5s-.436-6.5-1-6.5c-.55 0-1 1.125-1 2.5 0 2.243-.404 2.5-3.933 2.5-4.148 0-4.235-.105-5.569-6.739-.359-1.781-1.043-3.48-1.521-3.775-.907-.561-2.554 4.346-3.614 10.764-.598 3.624-2.363 5.304-2.363 2.25 0-1.19-1.444-1.5-7-1.5h-7v-8c0-4.87.407-8 1.04-8 .572 0 2.904 2.925 5.183 6.5 2.685 4.212 4.804 6.5 6.017 6.5 1.731 0 1.683-.318-.628-4.195C102.474 96.836 99.306 94.094 96.2 97.2m20.8 27.645c0 3.112 7.721 14.155 9.896 14.155 4.404 0 5.104-.974 5.104-7.107 0-4.572-.336-5.893-1.5-5.893-1.133 0-1.5 1.222-1.5 5 0 2.783-.459 5-1.036 5-.57 0-2.87-2.925-5.112-6.5-4.145-6.612-5.852-7.969-5.852-4.655m-36 28.714c0 4.118.372 6.329 1 5.941.55-.34 1-2.435 1-4.656v-4.037l4.46 4.846 4.461 4.847.039-6.75c.023-3.86-.388-6.75-.96-6.75-.55 0-1.013 1.912-1.03 4.25l-.03 4.25-3.72-4.265c-2.046-2.346-4.058-4.259-4.47-4.25-.412.008-.75 2.967-.75 6.574m14.284.524c.685 5.105.95 5.353 5.773 5.418l3.943.052v-4.776c0-5.639-1.74-6.455-2.19-1.027-.242 2.933-.77 3.816-2.424 4.052-1.771.252-2.219-.356-2.762-3.75-.872-5.456-3.072-5.427-2.34.031M108 155.211c0 3.017.385 4.669 1 4.289.55-.34 1-1.984 1-3.653 0-2.193.554-3.179 2-3.557 3.046-.797 2.385-2.167-1-2.071-2.914.083-3 .226-3 4.992m8.18-3.927c-1.435 1.728-.267 3.264 3.111 4.091 3.581.877 2.552 2.606-1.6 2.688-3.125.062-3.14.084-.708 1.055 1.68.669 3.243.644 4.829-.078 3.463-1.578 2.189-3.805-3.125-5.461-2.679-.834-.875-2.843 1.922-2.141 1.35.339 2.391.156 2.391-.419 0-1.471-5.559-1.255-6.82.265m11.247-.519c-1.553 1.064-2.457 3.993-1.778 5.763.837 2.181 4.092 3.689 6.389 2.96 2.818-.895 2.417-2.074-.69-2.027-1.459.021-2.847-.523-3.084-1.211-.292-.848.723-1.25 3.153-1.25 3.713 0 4.665-1.518 2.383-3.8-1.335-1.335-4.721-1.566-6.373-.435m1.274.867c-1.406 1.406-.642 2.368 1.882 2.368 1.622 0 2.429-.465 2.167-1.25-.481-1.446-3.02-2.147-4.049-1.118"/></svg>